<?xml version="1.0" encoding="UTF-8"?>
<svg id="Calque_2" data-name="Calque 2" xmlns="http://www.w3.org/2000/svg" viewBox="0 0 710.12 794.34">
  <defs>
    <style>
      .cls-1 {
        fill: #c67d4f;
      }
    </style>
  </defs>
  <g id="Calque_1-2" data-name="Calque 1">
    <path class="cls-1" d="M298.02,227.54c23.34-67.25,64.23-130.2,118.5-176.47,79.95-68.16,185.1-73.97,248.43,18.58,69.97,102.25,47.32,206.2,8.1,314.89-61.11,169.31-176.64,321.8-338.35,405.28-5.94,3.06-14.19,6.31-20.45,3.37-14.27-6.71-30.86-44.77-36.28-59.67-4.29-11.79-10.6-32.42-2.77-43.6,2.39-3.41,6.26-4.67,8.55-7.86-87.4-87.4-171.17-180.51-224.87-293.14C20.41,308.23-21.61,176.3,12.66,89.69,38.31,24.87,122.53-7.7,183.51,29.12c52.34,31.61,84.22,113.93,104.03,169.56,2.98,8.37,5.41,19.26,8.95,27.03.34.74.5,1.76,1.53,1.83ZM223.51,143.13c-9.78-10.57-34.68-19.43-48.87-20.48-55.62-4.11-119.85,36.17-127.02,94.12-5.06,40.88,27.91,102.76,49.09,137.34,54.51,88.98,133.17,164.83,210.3,234.23,17.47,15.72,35.39,30.95,52.88,46.64,114.4-81.03,197.68-202.31,247.7-332.33,10.52-27.35,20.34-56.21,27.88-84.54,8.22-30.9,15.14-62.74,13.43-94.98-50.3-31.89-117.43-13.31-162.54,19.44-73.62,53.45-128.95,160.75-145.35,248.92-1.99,10.7-2.61,23.87-5.08,33.89-3.98,16.15-20.02,1.35-26.29-5.27-37.66-39.76-33.48-81.44-41.85-131.28-6.51-38.76-16.8-78.09-30.5-114.89-2.59-6.96-9.39-26.09-13.77-30.82Z"/>
  </g>
</svg>