<?xml version="1.0" encoding="UTF-8"?>
<svg id="Calque_2" data-name="Calque 2" xmlns="http://www.w3.org/2000/svg" viewBox="0 0 1404 388.81">
  <defs>
    <style>
      .cls-1 {
        fill: #c67d4f;
      }
    </style>
  </defs>
  <g id="Calque_1-2" data-name="Calque 1">
    <g>
      <path class="cls-1" d="M0,382.15c15.51-2.1,24.31-18.18,25.49-32.61,1.94-23.84,1.27-49.44,2.23-73.45,2.7-67.61,6.35-135.3,8.32-203.01.27-9.27-6.67-21.17-14.51-26.02l-10.27-4.35h56.62l139.49,275L329.62,42.71h54.38l-8.52,3.1c-21.01,10.74-16,29.72-15.45,48.94,2.18,76.45,4.62,152.95,8.25,229.29.9,18.95-1.98,40.76,15.02,53.93l11.2,5.67h-81l9.99-3.88c18.05-11.1,14.45-28.91,13.98-46.67-2.2-82.2-6.79-164.37-9.75-246.52-.18-4.9.43-10.21.03-15.03-.09-1.12.59-2.15-1.12-1.87l-132.76,296.72L45.01,74.19c-.53,9.09-.33,18.28-.73,27.38-3.23,74.15-6.74,148.2-9,222.54-.53,17.35-5.57,42.19,10.97,54.16l11.49,5.37H0s0-1.49,0-1.49Z"/>
      <path class="cls-1" d="M748.5,170.09c10.91-10.11,23.26-18.54,37.3-23.8,49.06-18.39,129.8-7.33,133.69,57.15,2.98,49.38-2.3,101.59.1,151.26,1.69,10.79,6.65,20.91,16.64,26.08l7.26,2.86h-76.5l10.75-4.62c9.1-6.89,13.02-16.83,13.99-27.98-1.95-49.12,2.62-100.25.04-149.13-2.94-55.79-49.91-68.82-97.53-54.67-17.77,5.28-38.51,15.64-45.71,33.76l-.03,173.78c1.34,9.73,6.08,19.81,14.76,24.96l9.22,3.9h-76.5l5.75-2.12c13.51-5.95,18.18-19.59,19.03-33.44,3.49-57.16-2.67-117.84-.04-175.36-.87-7.19-1.89-15.66-7.85-20.63-2.65-2.21-6.33-2.2-8.64-4.47l44.25-6v28.47Z"/>
      <path class="cls-1" d="M611.25,344.68l-8.23,10.88c-43.51,48.79-167.79,49.71-162.06-36.77,4.57-68.99,90.32-65.07,136.8-85.87,19.12-8.55,36.46-20.78,31.63-44.13-9.1-44-53.6-52.96-92.06-43.22-20.7,5.24-44.01,17.67-53.84,37.24,20.65-8.58,37.17,19.28,18.69,32.54-10.34,7.41-25.82,2.66-29.14-9.72-2.06-7.66,0-13.08,3.3-19.85,33.97-69.72,177.46-63.75,182.69,19.86,3.11,49.81-2.99,103.03-.07,152.93.25,4.21,1.09,12.04,3.15,15.59,4.75,8.2,17.18,4.72,24.64,2.74-12.67,10.5-46.35,17.36-53.83-2.05-.33-.87-1.67-5.33-1.67-5.83v-24.35ZM611.25,210.56c-3.5,4.39-6.31,9.25-10.49,13.12-24.2,22.43-66.06,22.2-94.26,38.45-52.5,30.24-45.6,126.82,26.37,121.51,21.62-1.6,58.91-18.32,72.26-35.71,1.3-1.69,6.13-9.53,6.13-11.11v-126.26Z"/>
      <path class="cls-1" d="M1380,0v355.55c0,6.85,7.5,19.58,13.25,23.48l10.75,4.62h-76.5l7.74-3.13c10.01-5.45,15.15-16.15,16.28-27.19l-.03-327.47c-1.17-6.75-3.44-13.68-9.7-17.28l-7.53-2.58,45.75-6Z"/>
      <path class="cls-1" d="M1185,143.87l-168,235.66,117.4.4c8.83-.99,17.5-1.56,25.83-4.91,11.82-4.76,18.28-14.87,23.64-25.85l-4.87,34.48h-199.5l166.5-234.16-115.16-.41c-14.39,1.28-27.22,4.17-36.65,15.83l-8.68,13.42,5.99-34.46h193.5Z"/>
      <path class="cls-1" d="M1268.25,142.37v214.68c0,6.85,8.28,18.93,14,22.73l11.5,4.62h-79.5l11.5-4.62c10.8-7.99,14.01-18.7,14.78-31.69,3.4-56.97-2.6-117.29-.04-174.61-.89-8.36-2.21-16.73-9.49-21.99l-7.75-3.11,45-6Z"/>
      <ellipse class="cls-1" cx="1253.87" cy="96.32" rx="18.99" ry="18.97"/>
    </g>
  </g>
</svg>